PathFileType	4	(X/Y/Z)	/Users/itak/Documents/Research/Walk-IL/dataset/trc/00484_00167.trc
DataRate	CameraRate	NumFrames	NumMarkers	Units	OrigDataRate	OrigDataStartFrame	OrigNumFrames
100.000000	100.000000	4	53	mm	100.000000	454	606
Frame#	Time	RPSI			LPSI			L3			STRN			T10			C7			CLAV			RBAK			LBAK			LSHO			LUPA			LAEL			LAOL			LWTS			LWPS			LFRA			LIFD			LHPS			LHTS			RSHO			RUPA			RAEL			RAOL			RWTS			RWPS			RFRA			RIFD			RHTS			RHPS			RBHD			LFHD			RFHD			LBHD			LHIP			RHIP			RASI			LASI			LKNE			LTHI			LANK			LTIP			LTOE			LMT1			LMT5			LHEE			RKNE			RTHI			RANK			RTIP			RTOE			RMT1			RMT5			RHEE			
		X1	Y1	Z1	X2	Y2	Z2	X3	Y3	Z3	X4	Y4	Z4	X5	Y5	Z5	X6	Y6	Z6	X7	Y7	Z7	X8	Y8	Z8	X9	Y9	Z9	X10	Y10	Z10	X11	Y11	Z11	X12	Y12	Z12	X13	Y13	Z13	X14	Y14	Z14	X15	Y15	Z15	X16	Y16	Z16	X17	Y17	Z17	X18	Y18	Z18	X19	Y19	Z19	X20	Y20	Z20	X21	Y21	Z21	X22	Y22	Z22	X23	Y23	Z23	X24	Y24	Z24	X25	Y25	Z25	X26	Y26	Z26	X27	Y27	Z27	X28	Y28	Z28	X29	Y29	Z29	X30	Y30	Z30	X31	Y31	Z31	X32	Y32	Z32	X33	Y33	Z33	X34	Y34	Z34	X35	Y35	Z35	X36	Y36	Z36	X37	Y37	Z37	X38	Y38	Z38	X39	Y39	Z39	X40	Y40	Z40	X41	Y41	Z41	X42	Y42	Z42	X43	Y43	Z43	X44	Y44	Z44	X45	Y45	Z45	X46	Y46	Z46	X47	Y47	Z47	X48	Y48	Z48	X49	Y49	Z49	X50	Y50	Z50	X51	Y51	Z51	X52	Y52	Z52	X53	Y53	Z53	

455	4.54	-7.478237628936768	914.4169921875	-498.1917114257812	-27.93823623657227	901.8590087890625	-358.4544372558594	-21.99025726318359	1007.594909667969	-461.9742736816406	-298.7883605957031	1200.914428710938	-493.7176513671875	-9.674045562744141	1132.0185546875	-472.4715881347656	-81.659912109375	1398.30322265625	-514.7988891601562	-260.8675537109375	1313.603271484375	-493.9183959960938	-13.03346157073975	1271.775634765625	-594.6768188476562	-46.11532592773438	1357.624755859375	-415.2734069824219	-145.1332244873047	1383.32958984375	-334.1716003417969	-110.6159133911133	1279.665649414062	-227.9122314453125	-84.53156280517578	1075.308349609375	-168.1940307617188	-25.70366287231445	1061.4248046875	-252.6130828857422	-114.5091857910156	854.3355712890625	-154.9855041503906	-53.04848861694336	864.3403930664062	-113.7457580566406	-78.36117553710938	990.0242309570312	-139.7376251220703	-64.90506744384766	705.3792114257812	-120.5720748901367	-33.78240966796875	790.1024780273438	-101.2819671630859	-99.26596832275391	772.21240234375	-129.2295532226562	-140.7121734619141	1354.26513671875	-670.4825439453125	-119.7947769165039	1292.670288085938	-743.0870971679688	-139.0985870361328	1011.473449707031	-815.7075805664062	-91.35182952880859	984.5167236328125	-775.8897705078125	-281.5966796875	832.1407470703125	-777.3157348632812	-217.9708099365234	804.2344360351562	-833.3641967773438	-153.2696533203125	954.7440185546875	-827.017578125	-320.7321472167969	682.9949951171875	-796.3235473632812	-318.917724609375	743.6875	-795.2973022460938	-255.1075592041016	725.0770874023438	-836.4321899414062	-239.5575714111328	1587.0107421875	-602.1369018554688	-334.4656677246094	1566.076782226562	-420.484130859375	-363.3921203613281	1562.507080078125	-547.890869140625	-186.5765686035156	1601.41064453125	-433.4166564941406	-197.3690185546875	826.4683227539062	-261.3296508789062	-93.00533294677734	819.2925415039062	-657.5700073242188	-211.6143035888672	849.7099609375	-616.05908203125	-263.7840881347656	869.3573608398438	-367.7686767578125	-401.4389038085938	464.6957092285156	-284.2456359863281	-347.3048095703125	609.5100708007812	-275.3968811035156	-526.028564453125	63.46364212036133	-258.7611389160156	-463.7633972167969	327.0003662109375	-261.3705749511719	-724.9697875976562	168.9571380615234	-336.9481201171875	-659.7288818359375	130.8802947998047	-363.3953552246094	-656.7719116210938	137.5803375244141	-252.6839752197266	-484.2482299804688	43.93756866455078	-321.9188842773438	-42.19654846191406	437.9759216308594	-625.6051635742188	-118.412223815918	684.7986450195312	-666.3101196289062	173.8814544677734	54.33156204223633	-618.8614501953125	14.57584857940674	299.49658203125	-629.9371948242188	-22.86628723144531	42.56364059448242	-531.7763061523438	40.71963119506836	51.310546875	-511.85498046875	43.16291809082031	41.25883483886719	-621.3583374023438	245.1441802978516	64.58074188232422	-585.1304931640625	
456	4.55	-17.25148010253906	912.928466796875	-495.2296752929688	-38.20157241821289	899.6934814453125	-355.7490234375	-31.7858943939209	1005.246154785156	-458.7737121582031	-308.3438415527344	1199.09814453125	-490.1730651855469	-19.14461898803711	1129.720336914062	-468.7992553710938	-90.83293914794922	1396.239990234375	-510.2554321289062	-270.2559509277344	1311.710693359375	-489.7375183105469	-22.26710319519043	1270.04443359375	-590.532958984375	-55.31820678710938	1355.046264648438	-411.0308532714844	-154.1829528808594	1380.645385742188	-329.7349548339844	-119.1713027954102	1276.566772460938	-224.0975189208984	-92.33291625976562	1072.109985351562	-165.5109405517578	-34.13999557495117	1058.643432617188	-250.4329223632812	-121.6794586181641	850.993896484375	-152.9032745361328	-59.89409637451172	861.0145874023438	-112.1110229492188	-85.75251770019531	986.73779296875	-137.4278564453125	-71.32265472412109	702.0569458007812	-119.4678726196289	-40.29891967773438	786.8063354492188	-100.0758743286133	-105.9341201782227	768.8097534179688	-127.6208648681641	-149.9273223876953	1352.868530273438	-666.1207885742188	-128.9282684326172	1291.468994140625	-738.9392700195312	-147.969482421875	1010.288696289062	-811.8848876953125	-100.137565612793	983.52197265625	-772.1028442382812	-289.3430480957031	829.8573608398438	-773.9158325195312	-225.3658447265625	802.5606689453125	-830.0721435546875	-161.82421875	953.4751586914062	-823.346923828125	-327.134521484375	680.3858032226562	-793.3297119140625	-325.8209228515625	741.0810546875	-792.1480712890625	-261.7240295410156	723.1613159179688	-833.4022216796875	-248.1462554931641	1585.43896484375	-596.993408203125	-343.377197265625	1564.20849609375	-415.5312194824219	-372.1632690429688	1561.028930664062	-542.9700927734375	-195.4163208007812	1599.299072265625	-428.1795349121094	-207.5806121826172	823.8018188476562	-259.5087585449219	-101.5808563232422	818.1243286132812	-655.4450073242188	-220.3823547363281	848.042724609375	-614.2903442382812	-273.8541870117188	866.77392578125	-366.0011901855469	-410.8523864746094	461.7886047363281	-282.4435424804688	-357.0215759277344	606.6600952148438	-273.6502685546875	-534.6221313476562	60.37540435791016	-256.5043029785156	-472.9902954101562	323.9751586914062	-259.4576416015625	-733.5208740234375	166.1982879638672	-334.4710998535156	-668.525146484375	127.6082611083984	-360.9190063476562	-665.011474609375	135.1088256835938	-250.3031463623047	-492.8591918945312	40.66808319091797	-319.6054382324219	-47.86624526977539	437.3929138183594	-625.0794677734375	-126.049072265625	683.6831665039062	-664.8734130859375	173.3485870361328	56.09027481079102	-619.1979370117188	10.50814247131348	299.5542907714844	-629.7449951171875	-22.85323524475098	42.53425216674805	-531.8161010742188	40.52284622192383	51.44285583496094	-512.0941162109375	43.0612907409668	41.30326843261719	-621.4303588867188	244.4597320556641	67.73396301269531	-585.509521484375	
457	4.56	-27.24410057067871	911.424560546875	-492.2177124023438	-48.65006256103516	897.5216064453125	-352.9874572753906	-41.83237838745117	1002.880676269531	-455.5134887695312	-318.1634826660156	1197.2666015625	-486.5119323730469	-28.92031860351562	1127.411376953125	-465.0574951171875	-100.274658203125	1394.16357421875	-505.5523986816406	-279.9394226074219	1309.810791015625	-485.4279479980469	-31.78194236755371	1268.31494140625	-586.25390625	-64.79790496826172	1352.455932617188	-406.6220397949219	-163.5310974121094	1377.944458007812	-325.1561889648438	-128.0854034423828	1273.417358398438	-220.1606903076172	-100.5803070068359	1068.834228515625	-162.7398834228516	-42.96228408813477	1055.807739257812	-248.1179504394531	-129.3603820800781	847.580322265625	-150.8487854003906	-67.272216796875	857.5946044921875	-110.4628448486328	-93.63070678710938	983.3660278320312	-135.0647735595703	-78.28694152832031	698.64501953125	-118.4289398193359	-47.36988067626953	783.3975219726562	-98.87762451171875	-113.1417770385742	765.3240356445312	-126.0625991821289	-159.4154815673828	1351.5126953125	-661.5857543945312	-138.3155364990234	1290.356079101562	-734.6438598632812	-156.8787841796875	1009.168212890625	-807.8627319335938	-108.9603042602539	982.6409301757812	-768.0752563476562	-296.9375610351562	827.4725952148438	-770.3468017578125	-232.5370178222656	800.873046875	-826.6044311523438	-170.3380737304688	952.2552490234375	-819.4746704101562	-333.1442565917969	677.6217651367188	-790.1920776367188	-332.4272155761719	738.3204345703125	-788.8466796875	-268.0308532714844	721.1900634765625	-830.2020263671875	-256.927978515625	1583.903076171875	-591.6747436523438	-352.4987182617188	1562.38525390625	-410.3963317871094	-381.1399230957031	1559.630004882812	-537.873291015625	-204.4380187988281	1597.170288085938	-422.7716064453125	-217.9539642333984	821.075927734375	-257.5879821777344	-110.3669815063477	816.9322509765625	-653.2207641601562	-229.3009185791016	846.3861694335938	-612.4036865234375	-284.1203002929688	864.1021728515625	-364.12451171875	-420.28125	458.7274475097656	-280.5708312988281	-366.8170776367188	603.650146484375	-271.8099365234375	-542.9285888671875	57.14619827270508	-254.2357025146484	-482.1635437011719	320.7665710449219	-257.5031433105469	-741.9693603515625	163.0548553466797	-331.922119140625	-677.16455078125	124.0733947753906	-358.4017944335938	-673.098876953125	132.2343597412109	-247.8783874511719	-501.0079040527344	37.52679061889648	-317.2435913085938	-53.67831802368164	436.8614807128906	-624.5465698242188	-133.8808441162109	682.5630493164062	-663.3536376953125	172.7371368408203	58.00604248046875	-619.5331420898438	6.312564373016357	299.7002868652344	-629.5545043945312	-22.86920547485352	42.51841354370117	-531.8615112304688	40.30461883544922	51.60348892211914	-512.3468627929688	42.9273796081543	41.34904479980469	-621.489990234375	243.6620025634766	71.0958251953125	-585.8733520507812	
458	4.57	-37.45932006835938	909.9029541015625	-489.1478576660156	-59.27722930908203	895.3330688476562	-350.1479797363281	-52.12767791748047	1000.491149902344	-452.1973876953125	-328.2532958984375	1195.415161132812	-482.7341003417969	-39.01295471191406	1125.089111328125	-461.2478332519531	-109.9868698120117	1392.073974609375	-500.6915283203125	-289.9226684570312	1307.900512695312	-480.9918518066406	-41.57867813110352	1266.57763671875	-581.8403930664062	-74.55727386474609	1349.844482421875	-402.0456237792969	-173.1831665039062	1375.223999023438	-320.4361572265625	-137.3550872802734	1270.21728515625	-216.0996398925781	-109.2656860351562	1065.478881835938	-159.86767578125	-52.14615249633789	1052.921142578125	-245.6479644775391	-137.5541381835938	844.0982666015625	-148.8252868652344	-75.1971435546875	854.0757446289062	-108.7901000976562	-101.9955215454102	979.9044799804688	-132.6349639892578	-85.82540130615234	695.1427612304688	-117.4555740356445	-55.01996231079102	779.8667602539062	-97.68170928955078	-120.9073638916016	761.7550659179688	-124.5590438842773	-169.1721496582031	1350.196044921875	-656.881591796875	-147.9548797607422	1289.318603515625	-730.1940307617188	-165.8225860595703	1008.108215332031	-803.6473999023438	-117.8096618652344	981.8679809570312	-763.8082275390625	-304.3538208007812	825.001220703125	-766.6508178710938	-239.4998779296875	799.180419921875	-822.9677124023438	-178.8014984130859	951.0888671875	-815.40771484375	-338.7568969726562	674.7276611328125	-786.9496459960938	-338.7507019042969	735.4285888671875	-785.3992309570312	-274.0518493652344	719.1817016601562	-826.8269653320312	-265.9085998535156	1582.411376953125	-586.19189453125	-361.8355102539062	1560.6025390625	-405.09033203125	-390.3247985839844	1558.302856445312	-532.6027221679688	-213.6488494873047	1595.026123046875	-417.197021484375	-228.4987640380859	818.2893676757812	-255.5264739990234	-119.3791732788086	815.7169799804688	-650.8875122070312	-238.4083099365234	844.7252197265625	-610.3883666992188	-294.5746459960938	861.3314208984375	-362.1210327148438	-429.7233581542969	455.5191345214844	-278.6244201660156	-376.6806945800781	600.4835815429688	-269.8606872558594	-550.8626708984375	53.85517120361328	-252.0216979980469	-491.2879028320312	317.3909301757812	-255.5387268066406	-750.400390625	159.3095703125	-329.2817993164062	-685.6973266601562	120.1950759887695	-355.862548828125	-681.0606689453125	128.78173828125	-245.4195709228516	-508.5997314453125	34.72854995727539	-314.9165954589844	-59.62724304199219	436.3960266113281	-624.0146484375	-141.9307861328125	681.4295654296875	-661.7451782226562	172.0251770019531	60.0635871887207	-619.8707885742188	1.995855331420898	299.9407653808594	-629.36279296875	-22.9135570526123	42.51409912109375	-531.9102783203125	40.0543098449707	51.80514907836914	-512.6068725585938	42.74922943115234	41.39200973510742	-621.5409545898438	242.7263488769531	74.66871643066406	-586.2462768554688	
